# xmcd
#
# Track frame offsets: 
#        150
#        13512
#        24862
#        37575
#        48605
#        61342
#        71707
#        81790
#        92130
#        104125
#        115600
#        125415
#        137360
#        149470
#        159602
#        171447
#        183495
#        194405
#        205192
#        214682
#        226537
#        237725
#        249797
#        262807
#        274025
#        285552
#        294945
#        305432
#        316432
#
# Disc length: 4378 seconds
#
# Revision: 2
# Processed by: cddbd v1.5.2PL0 Copyright (c) Steve Scherf et al.
# Submitted via: ExactAudioCopyFreeDBPlugin 1.0
#
DISCID=9811181d
DTITLE=Chet Atkins - Galloping Guitar - The Early Years [CD 2)
DYEAR=1995
DGENRE=Country
TTITLE0=Under The Hickory Nut Tree '50
TTITLE1=I Was Bitten By The Same Bug Twice '50
TTITLE2=One More Chance '50
TTITLE3=The Old Buck Dance '50
TTITLE4=Boogie Man Boogie '50
TTITLE5=Main Street Breakdown '50
TTITLE6=Confusin' '50
TTITLE7=Music In My Heart '51
TTITLE8=Indian Love Call '51
TTITLE9=Birth Of The Blues '50
TTITLE10=Mountain Melody '51
TTITLE11=You're Always Brand New '51
TTITLE12=My Crazy Heart '51
TTITLE13=Hybrid Corn '51
TTITLE14=Jitterbug Waltz '51
TTITLE15=One Man Boogie (Take H) '93
TTITLE16=Crazy Rhythm (Inst) '93
TTITLE17=Crazy Rhythm (Vocal) '51
TTITLE18=Rustic Dance '52
TTITLE19=Rainbow '52
TTITLE20=In The Mood '51
TTITLE21=Spanish Fandango '52
TTITLE22=Midnight '52
TTITLE23=Good-Bye Blues '52
TTITLE24=Your Mean Little Heart '52
TTITLE25=Sweet Bunch Of Daisies '51
TTITLE26=Blue Gypsy '53
TTITLE27=The Third Man Theme '52
TTITLE28=One Man Boogie (Take D) '93
EXTD=
EXTT0=
EXTT1=
EXTT2=
EXTT3=
EXTT4=
EXTT5=
EXTT6=
EXTT7=
EXTT8=
EXTT9=
EXTT10=
EXTT11=
EXTT12=
EXTT13=
EXTT14=
EXTT15=
EXTT16=
EXTT17=
EXTT18=
EXTT19=
EXTT20=
EXTT21=
EXTT22=
EXTT23=
EXTT24=
EXTT25=
EXTT26=
EXTT27=
EXTT28=
PLAYORDER=
